<svg xmlns="http://www.w3.org/2000/svg" id="svg2" viewBox="0 0 250 250"><style>.st0{fill:red}</style><g id="layer1" transform="translate(112.9 -145.3)"><g id="g4593" transform="translate(-2771.8 3070.6) scale(1.58399)"><path id="path4597" d="M1747.7-1698.9l-10-9.9h19.7c10.8 0 19.7.1 19.7.2l-9.7 9.9-9.7 9.7-10-9.9zm-39.3-29.4v-9.9h98.4v19.8h-98.4v-9.9zm-19.5-29.4l-9.7-9.6h19.6l9.7-9.7c5.3-5.3 9.7-9.8 9.7-10s-4.4-4.7-9.8-10.1l-9.8-9.8 9.8-9.7 9.8-9.7-9.9-9.8-9.9-9.8h24.6l9.9 9.8 9.9 9.8-9.8 9.8-9.8 9.8 9.8 9.7c5.4 5.4 9.8 9.9 9.8 10.1 0 .2-4.4 4.7-9.7 10l-9.7 9.7h12.2l9.7-9.7c5.3-5.3 9.7-9.8 9.7-10s-4.4-4.7-9.8-10.1l-9.8-9.8 9.8-9.7 9.8-9.7-9.9-9.8-9.9-9.8h24.6l9.9 9.8 9.9 9.8-9.8 9.8-9.8 9.8 9.8 9.7c5.4 5.4 9.8 9.9 9.8 10.1 0 .2-4.4 4.7-9.7 10l-9.7 9.7h12.4l9.7-9.7c5.3-5.3 9.7-9.8 9.7-10 0-.2-4.4-4.7-9.8-10.1l-9.8-9.8 9.8-9.7 9.8-9.7-9.9-9.8-9.9-9.8h24.6l9.9 9.8 9.9 9.8-9.8 9.8-9.8 9.8 9.8 9.7c5.4 5.4 9.8 9.9 9.8 10.1 0 .2-4.4 4.7-9.7 10l-9.7 9.7h39.2l-9.6 9.6-9.6 9.6h-118.6l-9.7-9.9z" class="st0"/><path id="path4595" d="M1748.2-1699.1l-9.5-9.4h18.9l18.9.1-9.4 9.4-9.4 9.4-9.5-9.5zm-39.5-29.2v-9.6h97.8v19.2h-97.8v-9.6zm-19.2-29.4l-9.3-9.3h19l9.7-9.7c6.2-6.2 9.7-9.9 9.7-10.3a98 98 0 0 0-9.6-10.2l-9.6-9.6 9.6-9.6c5.3-5.3 9.6-9.7 9.6-9.9 0-.2-4.3-4.6-9.6-9.8l-9.6-9.5h23.4l9.7 9.7 9.7 9.7-9.6 9.6c-5.3 5.3-9.6 9.7-9.6 9.9 0 .2 4.4 4.7 9.8 10.1l9.8 9.8-9.6 9.6c-5.3 5.3-9.6 9.8-9.6 10 0 .3 1.5.4 6.3.4h6.3l9.7-9.7c6.3-6.2 9.7-9.9 9.7-10.3s-3.4-4-9.6-10.2l-9.6-9.6 9.6-9.6c5.3-5.3 9.6-9.7 9.6-9.9s-4.3-4.6-9.6-9.8l-9.6-9.5h23.4l9.7 9.7 9.7 9.7-9.6 9.6c-5.3 5.3-9.6 9.7-9.6 9.9 0 .2 4.4 4.7 9.8 10.1l9.8 9.8-9.6 9.6c-5.3 5.3-9.6 9.8-9.6 10 0 .3 1.5.4 6.5.4h6.5l9.7-9.7c6.2-6.2 9.7-9.9 9.7-10.3a98 98 0 0 0-9.6-10.2l-9.6-9.6 9.6-9.6c5.3-5.3 9.6-9.7 9.6-9.9 0-.2-4.3-4.6-9.6-9.8l-9.6-9.5h23.4l9.7 9.7 9.7 9.7-9.6 9.6c-5.3 5.3-9.6 9.7-9.6 9.9 0 .2 4.4 4.7 9.8 10.1l9.8 9.8-9.6 9.6c-5.3 5.3-9.6 9.8-9.6 10 0 .3 4 .4 19.2.4h19.2l-9.3 9.3-9.3 9.3h-118l-9.7-9.9z" class="st0"/></g></g></svg>